<svg width="388" height="142" viewBox="0 0 388 142" fill="none" xmlns="http://www.w3.org/2000/svg">
<rect width="388" height="142" fill="white"/>
<path d="M49.9105 97.4807C42.8006 91.0744 30.8896 99.3994 28.5427 109.509C48.3707 128.837 67.5626 130.437 87.1316 122.569C64.0407 111.476 61.6282 108.039 49.9105 97.4807Z" fill="#EF5327"/>
<path d="M122.974 84.4212C119.321 96.617 118.25 95.8862 107.465 95.4187C91.612 94.7313 79.0888 82.503 68.8657 74.4548C53.7015 64.8321 51.5424 65.4086 45.4301 64.8321C19.9268 62.4264 12 91.982 12 71.0181C12 40.0802 37.151 15 68.1764 15C112.29 17.062 131.65 55.4622 122.974 84.4212Z" fill="#EF5126"/>
<path d="M110.912 83.0467C100.629 100.807 93.3732 85.4431 65.0747 66.8942C37.9178 51.2594 37.7474 67.8605 42.3284 51.7729C50.2551 23.9355 80.5835 20.8423 98.1602 30.1214C120.294 41.8061 121.195 65.2864 110.912 83.0467Z" fill="white"/>
<path fill-rule="evenodd" clip-rule="evenodd" d="M85.7531 75.1422C86.4424 77.8915 80.9281 75.1422 80.9281 75.1422L81.6174 57.2713H78.171C76.7924 57.2713 78.171 55.2093 78.171 55.2093H81.6174V51.0853C78.5326 51.0051 76.986 50.4335 74.7246 47.9923V43.5246C85.6395 46.6847 92.0505 46.8345 104.364 42.4936V46.9613C103.371 49.0706 102.508 50.1351 98.5048 51.0853V55.2093H102.296C102.296 55.2093 103.674 57.2713 102.296 57.2713H99.1941V71.3618C99.1941 71.3618 94.3691 73.4238 95.403 71.3618C96.4369 69.2998 95.403 57.2713 95.403 57.2713H85.7531C85.7531 57.2713 85.0638 72.3928 85.7531 75.1422ZM85.4084 55.2093V51.6771C89.3113 52.5453 91.5004 52.5037 95.403 51.6771V55.2093H85.4084Z" fill="#EE4D22"/>
<path d="M15.1018 87.8579C13.4742 86.3467 38.8872 62.2807 56.1917 73.8807C73.4962 85.4808 99.3672 108.693 114.091 102.749C112.854 104.568 112.104 105.539 110.567 107.103C95.8431 113.047 73.4962 90.9795 56.1917 79.3795C39.335 68.0796 16.0921 89.3193 16.405 91.8231C16.43 91.8775 16.4551 91.9305 16.4803 91.982C16.4382 91.9429 16.4133 91.8896 16.405 91.8231C15.8888 90.6997 15.4293 88.9876 15.1018 87.8579Z" fill="#EF5327"/>
<path d="M21.0187 98.4328C19.7051 96.9318 40.9658 73.1997 54.9326 84.7211C68.8995 96.2424 92.0147 116.991 104.077 113.554C102.754 114.786 100.846 115.773 99.2522 116.647C89.1259 122.207 68.8995 101.704 54.9327 90.1825C41.282 78.9219 23.6268 100.716 24.061 103.11C24.0835 103.157 24.1035 103.201 24.1205 103.244C24.0908 103.21 24.071 103.165 24.061 103.11C23.4984 101.944 21.2852 99.5637 21.0187 98.4328Z" fill="#EF5327"/>
<path d="M206.372 88.8807C206.15 87.7771 205.249 86.9205 203.668 86.3106C202.088 85.7008 200.15 85.3958 197.853 85.3958C196.174 85.3958 194.705 85.5556 193.445 85.875C192.198 86.1944 191.223 86.6337 190.519 87.1927C189.828 87.7517 189.482 88.387 189.482 89.0985C189.482 89.6938 189.723 90.2057 190.204 90.634C190.698 91.0551 191.328 91.4072 192.093 91.6903C192.859 91.9662 193.661 92.1949 194.501 92.3764C195.341 92.5507 196.112 92.6922 196.816 92.8011L200.668 93.411C201.656 93.5634 202.755 93.774 203.965 94.0426C205.187 94.3112 206.354 94.6779 207.465 95.1425C208.589 95.5999 209.515 96.188 210.243 96.9067C210.972 97.6255 211.336 98.5076 211.336 99.553C211.336 100.758 210.799 101.847 209.725 102.82C208.663 103.793 207.107 104.566 205.058 105.14C203.02 105.713 200.545 106 197.631 106C194.915 106 192.563 105.742 190.575 105.227C188.599 104.711 187.043 103.993 185.908 103.071C184.784 102.149 184.148 101.078 184 99.858H188.741C188.865 100.7 189.346 101.397 190.186 101.949C191.038 102.493 192.112 102.9 193.408 103.169C194.717 103.43 196.125 103.561 197.631 103.561C199.384 103.561 200.958 103.394 202.354 103.06C203.749 102.718 204.854 102.247 205.669 101.644C206.484 101.034 206.891 100.323 206.891 99.5095C206.891 98.7689 206.539 98.1664 205.835 97.7017C205.132 97.2371 204.206 96.8595 203.057 96.5691C201.909 96.2787 200.668 96.0246 199.335 95.8068L194.668 95.0227C191.704 94.5218 189.359 93.8067 187.63 92.8774C185.901 91.9481 185.037 90.732 185.037 89.2292C185.037 87.9804 185.611 86.8914 186.76 85.9621C187.92 85.0256 189.476 84.2996 191.427 83.7841C193.39 83.2614 195.581 83 198.001 83C200.446 83 202.619 83.2577 204.52 83.7732C206.422 84.2814 207.928 84.9784 209.039 85.8641C210.163 86.7498 210.756 87.7554 210.817 88.8807H206.372Z" fill="black"/>
<path d="M243.779 83.3049H248.372V98.072C248.372 99.5966 247.761 100.958 246.538 102.156C245.328 103.346 243.618 104.287 241.408 104.976C239.198 105.659 236.605 106 233.63 106C230.654 106 228.061 105.659 225.851 104.976C223.641 104.287 221.925 103.346 220.702 102.156C219.492 100.958 218.887 99.5966 218.887 98.072V83.3049H223.481V97.8542C223.481 98.9432 223.888 99.9124 224.703 100.762C225.518 101.604 226.678 102.268 228.185 102.755C229.703 103.234 231.518 103.473 233.63 103.473C235.741 103.473 237.556 103.234 239.075 102.755C240.593 102.268 241.754 101.604 242.556 100.762C243.371 99.9124 243.779 98.9432 243.779 97.8542V83.3049Z" fill="black"/>
<path d="M278.287 88.8807C278.064 87.7771 277.163 86.9205 275.583 86.3106C274.002 85.7008 272.064 85.3958 269.767 85.3958C268.088 85.3958 266.619 85.5556 265.359 85.875C264.112 86.1944 263.137 86.6337 262.433 87.1927C261.742 87.7517 261.396 88.387 261.396 89.0985C261.396 89.6938 261.637 90.2057 262.118 90.634C262.612 91.0551 263.242 91.4072 264.007 91.6903C264.773 91.9662 265.575 92.1949 266.415 92.3764C267.255 92.5507 268.026 92.6922 268.73 92.8011L272.582 93.411C273.57 93.5634 274.669 93.774 275.879 94.0426C277.101 94.3112 278.268 94.6779 279.379 95.1425C280.503 95.5999 281.429 96.188 282.157 96.9067C282.886 97.6255 283.25 98.5076 283.25 99.553C283.25 100.758 282.713 101.847 281.639 102.82C280.577 103.793 279.021 104.566 276.972 105.14C274.934 105.713 272.459 106 269.545 106C266.829 106 264.477 105.742 262.489 105.227C260.513 104.711 258.958 103.993 257.822 103.071C256.698 102.149 256.062 101.078 255.914 99.858H260.655C260.779 100.7 261.26 101.397 262.1 101.949C262.952 102.493 264.026 102.9 265.322 103.169C266.631 103.43 268.039 103.561 269.545 103.561C271.298 103.561 272.872 103.394 274.268 103.06C275.663 102.718 276.768 102.247 277.583 101.644C278.398 101.034 278.805 100.323 278.805 99.5095C278.805 98.7689 278.453 98.1664 277.749 97.7017C277.046 97.2371 276.12 96.8595 274.971 96.5691C273.823 96.2787 272.582 96.0246 271.249 95.8068L266.582 95.0227C263.618 94.5218 261.273 93.8067 259.544 92.8774C257.815 91.9481 256.951 90.732 256.951 89.2292C256.951 87.9804 257.525 86.8914 258.674 85.9621C259.834 85.0256 261.39 84.2996 263.341 83.7841C265.304 83.2614 267.495 83 269.915 83C272.36 83 274.533 83.2577 276.434 83.7732C278.336 84.2814 279.842 84.9784 280.953 85.8641C282.077 86.7498 282.67 87.7554 282.731 88.8807H278.287Z" fill="black"/>
<path d="M290.802 105.608V83.3049H295.395V93.2367H315.619V83.3049H320.212V105.608H315.619V95.6326H295.395V105.608H290.802Z" fill="black"/>
<path d="M334 83.3049V105.608H329.407V83.3049H334Z" fill="black"/>
<path d="M182.489 38.6939C183.128 38.6939 183.904 39.0271 184.816 39.6936C185.774 40.325 186.253 40.8687 186.253 41.3247C186.253 43.4644 186.162 46.3934 185.98 50.1117C185.934 51.0237 185.888 52.1287 185.843 53.4266C185.797 54.6894 185.774 56.1626 185.774 57.8464C185.774 63.1782 186.185 67.1069 187.006 69.6325C186.961 70.4744 186.527 71.0883 185.706 71.4741C184.885 71.8249 184.063 72.0003 183.242 72.0003C181.417 72.0003 180.208 71.5092 179.615 70.527C179.067 69.5448 178.794 68.1417 178.794 66.3177C178.794 59.5476 178.885 53.3213 179.067 47.6387C173.82 52.1287 169.737 55.8995 166.817 58.9513C166.817 58.9513 166.406 59.1618 165.585 59.5827C164.809 60.1089 164.17 60.372 163.669 60.372C162.482 60.372 161.501 60.144 160.726 59.688C159.95 59.2319 159.197 58.5655 158.467 57.6885L155.182 54.1106C152.901 51.6551 151.235 49.796 150.186 48.5332C150.186 51.7604 150.391 56.1451 150.802 61.6874C151.121 64.8795 151.281 67.2823 151.281 68.8959C151.281 69.7378 151.007 70.4569 150.46 71.0532C149.912 71.6144 149.045 71.895 147.859 71.895C146.673 71.895 145.692 71.7197 144.916 71.3689C144.186 71.0181 143.798 70.4919 143.753 69.7904C143.798 69.1941 143.821 68.2119 143.821 66.8438C143.821 64.1078 143.707 60.7754 143.479 56.8466L143.342 54.0053L143.205 50.3222C143.16 49.2348 143.114 47.9719 143.068 46.5338C143.023 45.0605 143 43.4644 143 41.7456C143 39.641 144.483 38.5886 147.449 38.5886C148.361 38.5886 149.274 38.764 150.186 39.1148C151.144 39.4656 151.851 39.9742 152.308 40.6407C152.673 41.8684 154.019 43.9029 156.346 46.7442C158.673 49.5855 160.954 52.2514 163.189 54.742C165.197 52.7776 166.84 51.3043 168.117 50.3222C170.307 48.6034 172.109 47.0073 173.524 45.534C174.984 44.0608 176.558 42.2893 178.246 40.2197C178.657 39.7988 179.25 39.448 180.025 39.1674C180.801 38.8517 181.622 38.6939 182.489 38.6939Z" fill="black"/>
<path d="M207.821 42.9032C207.684 45.1482 207.615 47.3055 207.615 49.3751C207.615 51.5148 207.798 54.6543 208.163 58.7935C208.209 59.4249 208.3 60.7052 208.437 62.6345C208.574 64.5287 208.642 66.2651 208.642 67.8436C209.098 67.8085 209.577 67.7559 210.079 67.6857C210.627 67.6155 211.037 67.5805 211.311 67.5805C212.315 67.5805 213.113 67.7734 213.707 68.1593C214.3 68.5451 214.596 69.1414 214.596 69.9482C214.596 70.4744 214.322 70.8778 213.775 71.1584C213.227 71.439 212.269 71.6495 210.901 71.7898C209.577 71.895 207.638 71.9477 205.083 71.9477C202.254 71.9477 200.133 71.8775 198.718 71.7372C197.304 71.5969 196.323 71.3338 195.776 70.9479C195.228 70.527 194.954 69.9131 194.954 69.1064C194.954 68.51 195.205 68.1066 195.707 67.8962C196.209 67.6857 196.916 67.5805 197.829 67.5805L199.266 67.6331L201.524 67.7383L201.182 61.5295C200.908 58.1621 200.772 55.0752 200.772 52.269C200.772 50.7606 200.84 48.691 200.977 46.0602L201.114 43.1663C199.562 43.2364 198.353 43.2715 197.486 43.2715C196.483 43.2715 195.798 43.1312 195.433 42.8506C195.114 42.57 194.954 41.9912 194.954 41.1142C194.954 40.132 195.821 39.5006 197.555 39.22C199.334 38.9394 202.026 38.7991 205.631 38.7991C208.414 38.7991 210.49 38.8692 211.859 39.0096C213.273 39.1499 213.98 39.4656 213.98 39.9567C213.98 41.1493 213.638 41.9386 212.954 42.3244C212.315 42.6752 211.06 42.8506 209.19 42.8506L207.821 42.9032Z" fill="black"/>
<path d="M222.949 69.4747C222.949 68.3171 223.04 67.0368 223.223 65.6336C223.405 64.0201 223.496 61.9856 223.496 59.5301C223.496 55.0401 223.246 50.708 222.744 46.5338C222.47 43.938 222.333 42.0964 222.333 41.009C222.333 40.2724 222.812 39.6585 223.77 39.1674C224.728 38.6412 225.709 38.3782 226.713 38.3782C227.352 38.3782 228.128 38.4132 229.04 38.4834C229.953 38.5535 230.614 38.5886 231.025 38.5886C241.291 38.5886 248.842 40.7108 253.678 44.9553C256.735 47.6913 258.263 51.3219 258.263 55.8469C258.263 57.7411 257.807 59.6529 256.895 61.5822C256.028 63.4764 254.773 65.0198 253.131 66.2124C251.351 67.5454 249.663 68.6153 248.066 69.4221C246.515 70.1938 244.393 70.8427 241.701 71.3689C239.055 71.895 235.656 72.1581 231.504 72.1581C228.858 72.1581 226.759 71.9301 225.207 71.4741C223.702 71.0181 222.949 70.3516 222.949 69.4747ZM234.105 67.37C237.161 67.37 239.967 66.9491 242.523 66.1072C245.078 65.2303 247.131 63.9324 248.682 62.2136C250.233 60.4597 251.009 58.3199 251.009 55.7943C251.009 53.3038 250.553 51.2342 249.64 49.5855C248.728 47.9018 247.154 46.5338 244.918 45.4814C243.23 44.6746 241.154 44.0958 238.69 43.7451C236.226 43.3592 233.26 43.1663 229.793 43.1663C229.793 43.5171 229.839 44.3239 229.93 45.5867C230.021 46.7793 230.067 47.779 230.067 48.5858L230.135 49.7434C230.409 53.3915 230.546 56.2854 230.546 58.4251C230.546 61.7926 230.295 64.7041 229.793 67.1595C230.888 67.2998 232.325 67.37 234.105 67.37Z" fill="black"/>
<path d="M286.447 72.0003C283.436 72.0003 280.676 71.7197 278.166 71.1584C275.657 70.5621 273.604 69.7027 272.007 68.5802C269.087 66.5808 267.034 64.4059 265.847 62.0557C264.707 59.6704 264.136 56.6362 264.136 52.953C264.136 52.1813 264.273 51.4622 264.547 50.7957C264.866 50.0942 265.277 49.3224 265.779 48.4806C265.916 48.235 266.121 47.8492 266.395 47.323C266.714 46.7618 266.92 46.2531 267.011 45.7971C267.878 44.5694 269.338 43.3943 271.391 42.2718C273.49 41.1493 275.748 40.2548 278.166 39.5883C280.585 38.8868 282.706 38.536 284.531 38.536C293.337 38.536 299.633 40.8511 303.42 45.4814C305.565 48.1824 306.637 50.9009 306.637 53.637C306.637 57.1799 305.793 60.2843 304.105 62.9502C302.462 65.6161 300.181 67.6857 297.261 69.159C295.436 70.0008 293.565 70.6849 291.649 71.211C289.733 71.7372 287.999 72.0003 286.447 72.0003ZM271.254 56.8466C271.208 58.7759 271.733 60.372 272.828 61.6348C273.969 62.8625 275.748 64.213 278.166 65.6863C279.991 66.2124 281.269 66.5632 281.999 66.7386C282.729 66.914 283.527 67.0017 284.394 67.0017C287.36 67.0017 289.984 66.5281 292.265 65.581C294.546 64.6339 296.303 63.336 297.535 61.6874C298.812 60.0387 299.451 58.1971 299.451 56.1626C299.451 53.4967 299.063 51.392 298.287 49.8486C297.512 48.3052 296.12 46.9196 294.113 45.6919C293.063 45.0254 291.717 44.5343 290.075 44.2186C288.478 43.9029 286.767 43.7451 284.942 43.7451C280.562 43.7451 277.163 44.9377 274.744 47.323C272.372 49.6732 271.208 52.8478 271.254 56.8466Z" fill="black"/>
<path d="M338.029 58.0042C341.998 63.1957 345.716 67.3174 349.184 70.3692C349.549 70.6498 349.732 70.9655 349.732 71.3163C349.732 71.7723 349.367 72.1581 348.637 72.4738C347.907 72.8246 347.062 73 346.104 73C344.69 73 343.161 72.544 341.519 71.632C340.333 71.0006 339.238 70.071 338.234 68.8433C337.23 67.5805 336.089 65.9669 334.812 64.0025L333.648 62.2136C332.462 60.5649 331.755 59.6003 331.527 59.3196C330.523 59.6353 329.36 59.8633 328.036 60.0037C326.713 60.144 325.094 60.2667 323.177 60.372C323.269 64.8619 323.314 68.0014 323.314 69.7904C323.314 70.4569 322.995 71.0006 322.356 71.4215C321.717 71.8074 320.919 72.0003 319.961 72.0003C318.774 72.0003 317.862 71.632 317.223 70.8953C316.584 69.9131 316.265 68.3873 316.265 66.3177L316.333 62.4766C316.333 60.0913 316.402 57.8288 316.539 55.6891C316.63 52.8828 316.676 50.8133 316.676 49.4803L316.744 46.7968C316.744 45.99 316.676 45.1657 316.539 44.3239C315.809 44.1485 315.17 43.8854 314.622 43.5346C314.075 43.1487 313.801 42.7278 313.801 42.2718C313.801 41.3949 314.212 40.7284 315.033 40.2724C315.9 39.7813 316.972 39.4656 318.25 39.3253C321.945 38.8692 325.55 38.6412 329.063 38.6412C335.04 38.6412 339.99 39.5006 343.914 41.2195C347.838 42.9383 349.8 45.5516 349.8 49.0594C349.8 50.1468 349.481 51.1991 348.842 52.2164C348.249 53.1985 347.427 54.0229 346.378 54.6894C343.641 56.338 340.857 57.443 338.029 58.0042ZM342.546 48.9015C342.546 47.2178 341.382 45.8497 339.055 44.7974C336.774 43.71 333.489 43.1663 329.2 43.1663C327.329 43.1663 325.413 43.3417 323.451 43.6925C323.542 44.9553 323.588 45.8497 323.588 46.3759C323.588 47.4282 323.497 48.9366 323.314 50.901C323.223 52.8653 323.177 54.4438 323.177 55.6365C326.234 55.6365 329.154 55.3208 331.937 54.6894C333.945 54.2333 335.633 53.7949 337.002 53.3739C338.371 52.953 339.625 52.3742 340.766 51.6376C341.952 50.8659 342.546 49.9538 342.546 48.9015Z" fill="black"/>
<path d="M368.225 42.9032C368.042 45.9199 367.951 48.0772 367.951 49.3751C367.951 52.2164 368.065 55.3558 368.293 58.7935C368.475 62.8625 368.567 65.8792 368.567 67.8436C370.301 67.6682 371.35 67.5805 371.715 67.5805C372.719 67.5805 373.517 67.7734 374.11 68.1593C374.703 68.5451 375 69.1414 375 69.9482C375 70.4744 374.726 70.8778 374.179 71.1584C373.631 71.439 372.673 71.6495 371.304 71.7898C369.981 71.895 368.042 71.9477 365.487 71.9477C362.658 71.9477 360.537 71.8775 359.122 71.7372C357.708 71.5969 356.727 71.3338 356.179 70.9479C355.632 70.527 355.358 69.9131 355.358 69.1064C355.358 68.51 355.609 68.1066 356.111 67.8962C356.613 67.6857 357.32 67.5805 358.232 67.5805L359.67 67.6331L361.928 67.7383L361.586 61.5295C361.312 58.1621 361.175 55.0752 361.175 52.269C361.175 50.7606 361.244 48.691 361.381 46.0602L361.518 43.1663C359.966 43.2364 358.757 43.2715 357.89 43.2715C356.886 43.2715 356.202 43.1312 355.837 42.8506C355.518 42.57 355.358 41.9912 355.358 41.1142C355.358 40.132 356.225 39.5006 357.959 39.22C359.738 38.9394 362.43 38.7991 366.034 38.7991C368.818 38.7991 370.894 38.8692 372.262 39.0096C373.677 39.1499 374.384 39.4656 374.384 39.9567C374.384 41.1493 374.042 41.9386 373.357 42.3244C372.719 42.6752 371.464 42.8506 369.593 42.8506L368.225 42.9032Z" fill="black"/>
<path fill-rule="evenodd" clip-rule="evenodd" d="M289.905 68.3901C280.647 70.9285 270.682 66.7066 267.648 58.9604C264.614 51.2142 269.66 42.877 278.919 40.3387C288.177 37.8004 298.142 42.0222 301.176 49.7684C304.21 57.5146 299.164 65.8518 289.905 68.3901ZM273.372 57.3911C274.702 60.7858 278.053 63.1527 281.943 63.8637C282.209 63.9122 282.477 63.953 282.747 63.9859C283.785 64.1123 284.852 64.1219 285.923 64.0033C286.209 63.9717 286.495 63.9309 286.781 63.8808C287.198 63.8076 287.615 63.7145 288.03 63.6009C289.32 63.2471 290.486 62.7224 291.504 62.0664C292.716 61.285 293.718 60.3174 294.468 59.2312C295.041 58.4017 295.468 57.503 295.73 56.5652C296.009 55.5643 296.1 54.5189 295.982 53.4653C295.951 53.1837 295.904 52.9014 295.842 52.6193C295.748 52.191 295.618 51.7631 295.452 51.3378C293.877 47.3161 289.465 44.7371 284.68 44.6447C284.53 44.6417 284.378 44.6413 284.227 44.6434C283.644 44.6513 283.057 44.6963 282.469 44.7802C282.327 44.8005 282.185 44.8231 282.043 44.8481C281.626 44.9212 281.209 45.0143 280.795 45.128C280.38 45.2417 279.978 45.373 279.59 45.5207C279.458 45.5709 279.327 45.623 279.198 45.677C279.188 45.6814 279.177 45.6859 279.167 45.6904C277.927 46.2135 276.837 46.907 275.925 47.7244C275.812 47.8258 275.702 47.9292 275.594 48.0344C273.985 49.6067 273 51.5852 272.821 53.6717C272.793 53.9967 272.785 54.3243 272.797 54.6534C272.83 55.5625 273.017 56.4829 273.372 57.3911Z" fill="white"/>
<path fill-rule="evenodd" clip-rule="evenodd" d="M291.245 71.8111C279.728 74.9685 267.333 69.7169 263.559 60.0814C259.785 50.4459 266.062 40.0752 277.579 36.9178C289.096 33.7604 301.491 39.0119 305.265 48.6474C309.039 58.2829 302.762 68.6536 291.245 71.8111ZM267.648 58.9604C270.682 66.7066 280.647 70.9285 289.905 68.3901C299.164 65.8518 304.21 57.5146 301.176 49.7684C298.142 42.0222 288.177 37.8004 278.919 40.3387C269.66 42.877 264.614 51.2142 267.648 58.9604Z" fill="#1E1E1E"/>
</svg>
