<svg width="912" height="438" viewBox="0 0 912 438" fill="none" xmlns="http://www.w3.org/2000/svg">
<path d="M0 0H912V266H0V0Z" fill="url(#paint0_linear_191_858)"/>
<path d="M428.442 188.867V269.339H600.855V122.664H595.659V115.815H574.875V122.664H570.152V170.604H564.483V155.766H554.091V170.604H546.061V243.657H519.136V207.131L491.739 188.867V107.254H483.709V97.552H478.513V88.4205H472.844V97.552H468.121V107.254H458.673V176.882H437.417V188.867H428.442Z" fill="#49B9C5"/>
<path d="M428.442 188.867V269.339H600.855V122.664H595.659V115.815H574.875V122.664H570.152V170.604H564.483V155.766H554.091V170.604H546.061V243.657H519.136V207.131L491.739 188.867V107.254H483.709V97.552H478.513V88.4205H472.844V97.552H468.121V107.254H458.673V176.882H437.417V188.867H428.442Z" fill="#49B9C5"/>
<path d="M626.293 110.473V268.633H679.996V253.787L659.56 232.661V137.309H651.481V81.3534H643.402V101.337H637.699V110.473H626.293Z" fill="#49B9C5"/>
<path d="M701.665 202.152V267.926H814.723V221.026H801.005V186.71H784.921V174.127H775.933V186.71H760.796V221.026H745.659V202.152H736.671V186.71H725.318V144.958H718.222V186.71H710.18V202.152H701.665Z" fill="#49B9C5"/>
<path d="M13.1901 188.514V268.986H185.603V122.31H180.407V115.462H159.623V122.31H154.9V170.251H149.231V155.412H138.839V170.251H130.809V243.303H103.884V206.777L76.487 188.514V106.901H68.4568V97.1987H63.2608V88.0671H57.5924V97.1987H52.8687V106.901H43.4214V176.529H22.165V188.514H13.1901Z" fill="#49B9C5"/>
<path d="M13.1901 188.514V268.986H185.603V122.31H180.407V115.462H159.623V122.31H154.9V170.251H149.231V155.412H138.839V170.251H130.809V243.303H103.884V206.777L76.487 188.514V106.901H68.4568V97.1987H63.2608V88.0671H57.5924V97.1987H52.8687V106.901H43.4214V176.529H22.165V188.514H13.1901Z" fill="#49B9C5"/>
<path d="M211.041 110.12V268.279H264.744V253.434L244.308 232.308V136.955H236.229V81H228.15V100.984H222.447V110.12H211.041Z" fill="#49B9C5"/>
<path d="M286.413 201.799V267.572H399.471V220.673H385.753V186.356H369.669V173.773H360.681V186.356H345.544V220.673H330.406V201.799H321.419V186.356H310.065V144.604H302.97V186.356H294.928V201.799H286.413Z" fill="#49B9C5"/>
<path d="M500.988 188.867V269.339H673.401V122.664H668.205V115.815H647.421V122.664H642.697V170.604H637.029V155.766H626.637V170.604H618.606V243.657H591.682V207.131L564.284 188.867V107.254H556.254V97.552H551.058V88.4205H545.39V97.552H540.666V107.254H531.219V176.882H509.962V188.867H500.988Z" fill="#328E98"/>
<path d="M500.988 188.867V269.339H673.401V122.664H668.205V115.815H647.421V122.664H642.697V170.604H637.029V155.766H626.637V170.604H618.606V243.657H591.682V207.131L564.284 188.867V107.254H556.254V97.552H551.058V88.4205H545.39V97.552H540.666V107.254H531.219V176.882H509.962V188.867H500.988Z" fill="#328E98"/>
<path d="M698.839 110.473V268.633H752.541V253.787L732.106 232.661V137.309H724.027V81.3534H715.948V101.337H710.245V110.473H698.839Z" fill="#328E98"/>
<path d="M774.211 202.152V267.926H887.269V221.026H873.55V186.71H857.467V174.127H848.479V186.71H833.341V221.026H818.204V202.152H809.216V186.71H797.863V144.958H790.767V186.71H782.726V202.152H774.211Z" fill="#328E98"/>
<path d="M85.7355 188.514V268.986H258.149V122.31H252.953V115.462H232.169V122.31H227.445V170.251H221.777V155.412H211.385V170.251H203.354V243.303H176.43V206.777L149.032 188.514V106.901H141.002V97.1987H135.806V88.0671H130.138V97.1987H125.414V106.901H115.967V176.529H94.7105V188.514H85.7355Z" fill="#328E98"/>
<path d="M85.7355 188.514V268.986H258.149V122.31H252.953V115.462H232.169V122.31H227.445V170.251H221.777V155.412H211.385V170.251H203.354V243.303H176.43V206.777L149.032 188.514V106.901H141.002V97.1987H135.806V88.0671H130.138V97.1987H125.414V106.901H115.967V176.529H94.7105V188.514H85.7355Z" fill="#328E98"/>
<path d="M283.587 110.12V268.279H337.289V253.434L316.854 232.308V136.955H308.775V81H300.696V100.984H294.993V110.12H283.587Z" fill="#328E98"/>
<path d="M358.959 201.799V267.572H472.017V220.673H458.298V186.356H442.215V173.773H433.227V186.356H418.089V220.673H402.952V201.799H393.964V186.356H382.611V144.604H375.515V186.356H367.473V201.799H358.959Z" fill="#328E98"/>
<path d="M0 235.064H912V281H0V235.064Z" fill="#328E98"/>
<path d="M0 334H912V438H0V334Z" fill="#5B5B5B"/>
<path d="M0 386C0 384.387 1.30793 383.079 2.92135 383.079H56.9287C58.5421 383.079 59.85 384.387 59.85 386C59.85 387.613 58.5421 388.921 56.9287 388.921H2.92135C1.30793 388.921 0 387.613 0 386Z" fill="#D9D9D9"/>
<path d="M77.6625 386C77.6625 384.387 78.9704 383.079 80.5839 383.079H134.591C136.205 383.079 137.513 384.387 137.513 386C137.513 387.613 136.205 388.921 134.591 388.921H80.5839C78.9704 388.921 77.6625 387.613 77.6625 386Z" fill="#D9D9D9"/>
<path d="M154.612 386C154.612 384.387 155.92 383.079 157.534 383.079H211.541C213.155 383.079 214.462 384.387 214.462 386C214.462 387.613 213.155 388.921 211.541 388.921H157.534C155.92 388.921 154.612 387.613 154.612 386Z" fill="#D9D9D9"/>
<path d="M232.987 386C232.987 384.387 234.295 383.079 235.909 383.079H289.204C290.817 383.079 292.125 384.387 292.125 386C292.125 387.613 290.817 388.921 289.204 388.921H235.909C234.295 388.921 232.987 387.613 232.987 386Z" fill="#D9D9D9"/>
<path d="M309.938 386C309.938 384.387 311.245 383.079 312.859 383.079H366.866C368.48 383.079 369.788 384.387 369.788 386C369.788 387.613 368.48 388.921 366.866 388.921H312.859C311.245 388.921 309.938 387.613 309.938 386Z" fill="#D9D9D9"/>
<path d="M387.6 386C387.6 384.387 388.908 383.079 390.521 383.079H444.529C446.142 383.079 447.45 384.387 447.45 386C447.45 387.613 446.142 388.921 444.529 388.921H390.521C388.908 388.921 387.6 387.613 387.6 386Z" fill="#D9D9D9"/>
<path d="M464.55 386C464.55 384.387 465.858 383.079 467.471 383.079H521.479C523.092 383.079 524.4 384.387 524.4 386C524.4 387.613 523.092 388.921 521.479 388.921H467.471C465.858 388.921 464.55 387.613 464.55 386Z" fill="#D9D9D9"/>
<path d="M542.212 386C542.212 384.387 543.52 383.079 545.134 383.079H599.141C600.755 383.079 602.062 384.387 602.062 386C602.062 387.613 600.755 388.921 599.141 388.921H545.134C543.52 388.921 542.212 387.613 542.212 386Z" fill="#D9D9D9"/>
<path d="M619.875 386C619.875 384.387 621.183 383.079 622.796 383.079H676.091C677.705 383.079 679.013 384.387 679.013 386C679.013 387.613 677.705 388.921 676.091 388.921H622.796C621.183 388.921 619.875 387.613 619.875 386Z" fill="#D9D9D9"/>
<path d="M697.538 386C697.538 384.387 698.845 383.079 700.459 383.079H754.466C756.08 383.079 757.388 384.387 757.388 386C757.388 387.613 756.08 388.921 754.466 388.921H700.459C698.845 388.921 697.538 387.613 697.538 386Z" fill="#D9D9D9"/>
<path d="M774.487 386C774.487 384.387 775.795 383.079 777.409 383.079H831.416C833.03 383.079 834.338 384.387 834.338 386C834.338 387.613 833.03 388.921 831.416 388.921H777.409C775.795 388.921 774.487 387.613 774.487 386Z" fill="#D9D9D9"/>
<path d="M852.15 386C852.15 384.387 853.458 383.079 855.071 383.079H909.079C910.692 383.079 912 384.387 912 386C912 387.613 910.692 388.921 909.079 388.921H855.071C853.458 388.921 852.15 387.613 852.15 386Z" fill="#D9D9D9"/>
<path d="M0 274.484H912V334H0V274.484Z" fill="#AFE0BC"/>
<path d="M98.6453 210.613C110.398 210.613 120.18 216.715 122.278 224.781C124.687 224.194 127.267 223.876 129.949 223.876C143.232 223.876 154 231.67 154 241.285C154 245.72 151.707 249.766 147.934 252.84C151.26 255.998 153.236 259.942 153.236 264.219C153.236 267.69 151.934 270.94 149.667 273.73C150.004 275.129 150.182 276.567 150.182 278.036C150.182 291.77 134.8 302.905 115.824 302.905C101.257 302.905 88.8077 296.342 83.8097 287.079C79.9621 288.367 75.6771 289.088 71.1588 289.088C54.5025 289.088 41 279.315 41 267.259C41 260.291 45.5106 254.085 52.534 250.088C49.1431 247.088 47.1081 243.253 47.1081 239.074C47.1081 229.46 57.876 221.666 71.1588 221.666C72.8374 221.666 74.4758 221.79 76.0575 222.027C79.4325 215.366 88.2723 210.613 98.6453 210.613Z" fill="url(#paint1_linear_191_858)"/>
<path d="M95.9263 231.39C95.9263 230.292 96.9517 229.403 98.2166 229.403C99.4815 229.403 100.507 230.292 100.507 231.39V317.497C100.507 318.594 99.4815 319.484 98.2166 319.484C96.9517 319.484 95.9263 318.594 95.9263 317.497V231.39Z" fill="#A5440D"/>
<path d="M62.7445 250.118C62.6955 249.908 62.7366 249.684 62.8614 249.499C63.3419 248.788 66.0351 249.038 66.1959 249.851C69.7423 267.755 76.3683 271.57 96.4286 265.048C96.8237 264.92 96.96 265.08 96.9473 265.36C96.909 266.206 96.6359 267.066 96.9439 267.882C96.9674 267.944 96.9897 268.005 97.0108 268.063C97.7003 269.953 93.7992 267.707 91.2775 268.407C72.9408 273.498 66.9305 268.065 62.7445 250.118Z" fill="#A5440D"/>
<path d="M131.074 272.562C131.123 272.352 131.082 272.128 130.958 271.944C130.477 271.233 128.201 271.42 128.041 272.233C124.494 290.137 120.567 295.057 100.507 288.536C99.6263 288.249 100.46 288.724 100.936 289.427C101.122 289.704 102.357 290.791 102.747 290.912C122.8 297.095 126.711 291.271 131.074 272.562Z" fill="#A5440D"/>
<path d="M188.926 219.152C185.703 213.936 161.529 214.408 159.561 222.02C157.301 221.467 162.077 231.669 159.561 231.669C147.101 231.669 137 239.025 137 248.098C137 252.284 139.151 256.103 142.69 259.004C139.57 261.984 137.716 265.706 137.716 269.743C137.716 273.019 138.938 276.086 141.064 278.719C140.748 280.039 140.581 281.396 140.581 282.782C140.581 295.744 157.518 299.733 175.318 299.733C188.983 299.733 198.562 308.475 203.25 299.733C206.859 300.949 210.471 293.213 214.709 293.213C230.334 293.213 243 283.989 243 272.612C243 266.035 239.561 260.737 232.973 256.965C236.154 254.133 237.27 249.956 237.27 246.012C237.27 236.938 227.169 229.583 214.709 229.583C213.135 229.583 211.598 229.701 210.114 229.924C206.948 223.637 198.656 219.152 188.926 219.152Z" fill="url(#paint2_linear_191_858)"/>
<path d="M190.76 236.345C190.76 235.309 189.798 234.47 188.611 234.47C187.425 234.47 186.463 235.309 186.463 236.345V317.609C186.463 318.644 187.425 319.484 188.611 319.484C189.798 319.484 190.76 318.644 190.76 317.609V236.345Z" fill="#A5440D"/>
<path d="M221.886 254.019C221.932 253.821 221.894 253.61 221.777 253.435C221.326 252.764 218.8 253.001 218.649 253.767C215.322 270.664 209.106 274.265 190.289 268.11C189.918 267.989 189.79 268.141 189.802 268.404C189.838 269.203 190.094 270.014 189.805 270.785C189.783 270.843 189.762 270.9 189.743 270.955C189.096 272.739 192.755 270.62 195.121 271.28C212.322 276.085 217.96 270.958 221.886 254.019Z" fill="#A5440D"/>
<path d="M154.566 275.462C154.52 275.264 154.559 275.053 154.676 274.879C155.127 274.208 157.261 274.385 157.412 275.151C160.739 292.048 166.527 295.127 185.345 288.973C186.171 288.702 186.61 290.368 186.164 291.033C186.058 291.19 185.888 291.314 185.693 291.379C165.045 298.273 158.807 293.757 154.566 275.462Z" fill="#A5440D"/>
<path d="M295.669 235.29C302.533 235.29 308.247 238.87 309.472 243.602C310.879 243.258 312.386 243.072 313.953 243.072C321.711 243.072 328 247.644 328 253.284C328 255.886 326.661 258.26 324.457 260.064C326.4 261.916 327.554 264.23 327.554 266.739C327.554 268.776 326.793 270.682 325.469 272.319C325.666 273.14 325.77 273.984 325.77 274.845C325.77 282.903 316.786 289.435 305.703 289.435C297.194 289.435 289.923 285.585 287.004 280.15C284.757 280.906 282.254 281.329 279.615 281.329C269.886 281.329 262 275.596 262 268.523C262 264.435 264.635 260.794 268.737 258.449C266.756 256.689 265.568 254.439 265.568 251.988C265.568 246.347 271.857 241.775 279.615 241.775C280.595 241.775 281.552 241.848 282.476 241.987C284.447 238.079 289.61 235.29 295.669 235.29Z" fill="url(#paint3_linear_191_858)"/>
<path d="M294.081 247.479C294.081 246.836 294.68 246.314 295.419 246.314C296.157 246.314 296.756 246.836 296.756 247.479V297.996C296.756 298.639 296.157 299.161 295.419 299.161C294.68 299.161 294.081 298.639 294.081 297.996V247.479Z" fill="#A5440D"/>
<path d="M274.7 258.466C274.672 258.343 274.696 258.212 274.769 258.103C275.049 257.686 276.622 257.833 276.716 258.31C278.788 268.813 282.658 271.052 294.374 267.226C294.605 267.15 294.685 267.245 294.677 267.409C294.655 267.905 294.495 268.409 294.675 268.888C294.689 268.925 294.702 268.96 294.714 268.994C295.117 270.103 292.838 268.786 291.366 269.196C280.656 272.183 277.145 268.996 274.7 258.466Z" fill="#A5440D"/>
<path d="M314.61 271.634C314.638 271.511 314.614 271.379 314.542 271.271C314.261 270.854 312.932 270.964 312.838 271.441C310.766 281.944 308.473 284.831 296.756 281.005C296.242 280.837 296.729 281.115 297.007 281.528C297.116 281.69 297.837 282.328 298.066 282.399C309.777 286.026 312.061 282.61 314.61 271.634Z" fill="#A5440D"/>
<path d="M528.253 203.014C524.513 196.96 496.463 197.508 494.179 206.344C491.556 205.702 497.099 217.545 494.179 217.545C479.721 217.545 468 226.084 468 236.617C468 241.475 470.496 245.908 474.602 249.276C470.982 252.736 468.831 257.056 468.831 261.743C468.831 265.545 470.249 269.106 472.716 272.162C472.349 273.694 472.155 275.27 472.155 276.879C472.155 291.926 491.808 296.556 512.463 296.556C528.32 296.556 539.435 306.704 544.875 296.556C549.063 297.968 553.254 288.988 558.172 288.988C576.303 288.988 591 278.281 591 265.073C591 257.439 587.01 251.288 579.365 246.909C583.056 243.622 584.351 238.773 584.351 234.195C584.351 223.662 572.631 215.123 558.172 215.123C556.345 215.123 554.562 215.26 552.84 215.519C549.166 208.222 539.544 203.014 528.253 203.014Z" fill="url(#paint4_linear_191_858)"/>
<path d="M530.382 222.973C530.382 221.771 529.266 220.796 527.889 220.796C526.512 220.796 525.396 221.771 525.396 222.973V317.307C525.396 318.509 526.512 319.484 527.889 319.484C529.266 319.484 530.382 318.509 530.382 317.307V222.973Z" fill="#A5440D"/>
<path d="M566.5 243.49C566.553 243.26 566.509 243.015 566.373 242.812C565.85 242.033 562.918 242.308 562.743 243.198C558.883 262.812 551.671 266.992 529.835 259.847C529.405 259.707 529.257 259.883 529.27 260.189C529.312 261.116 529.609 262.057 529.274 262.952C529.249 263.02 529.224 263.086 529.201 263.15C528.451 265.22 532.697 262.76 535.442 263.527C555.401 269.104 561.944 263.153 566.5 243.49Z" fill="#A5440D"/>
<path d="M488.383 268.382C488.33 268.152 488.375 267.907 488.511 267.704C489.034 266.925 491.511 267.131 491.686 268.021C495.546 287.636 502.262 291.21 524.098 284.065C525.057 283.752 525.566 285.685 525.048 286.456C524.926 286.639 524.728 286.783 524.502 286.858C500.543 294.862 493.305 289.62 488.383 268.382Z" fill="#A5440D"/>
<path d="M619.314 215.694C607.145 215.694 597.017 222.04 594.845 230.428C592.351 229.818 589.679 229.488 586.902 229.488C573.149 229.488 562 237.593 562 247.592C562 252.205 564.374 256.413 568.28 259.61C564.837 262.894 562.791 266.995 562.791 271.444C562.791 275.054 564.139 278.434 566.486 281.336C566.137 282.79 565.953 284.286 565.953 285.813C565.953 300.097 581.88 311.677 601.527 311.677C616.61 311.677 629.5 304.852 634.675 295.218C638.659 296.558 643.095 297.308 647.774 297.308C665.019 297.308 679 287.144 679 274.605C679 267.358 674.33 260.904 667.058 256.748C670.569 253.627 672.676 249.639 672.676 245.293C672.676 235.294 661.527 227.189 647.774 227.189C646.036 227.189 644.339 227.318 642.702 227.565C639.207 220.637 630.054 215.694 619.314 215.694Z" fill="url(#paint5_linear_191_858)"/>
<path d="M622.129 237.302C622.129 236.16 621.068 235.235 619.758 235.235C618.448 235.235 617.387 236.16 617.387 237.302V326.853C617.387 327.994 618.448 328.919 619.758 328.919C621.068 328.919 622.129 327.994 622.129 326.853V237.302Z" fill="#A5440D"/>
<path d="M656.486 256.778C656.536 256.56 656.494 256.327 656.365 256.135C655.867 255.396 653.079 255.656 652.912 256.501C649.24 275.121 642.38 279.089 621.609 272.306C621.2 272.173 621.059 272.34 621.072 272.631C621.112 273.51 621.395 274.404 621.076 275.254C621.051 275.318 621.028 275.381 621.006 275.441C620.293 277.407 624.332 275.072 626.943 275.8C645.929 281.094 652.152 275.444 656.486 256.778Z" fill="#A5440D"/>
<path d="M585.737 280.121C585.686 279.903 585.729 279.67 585.858 279.478C586.356 278.738 588.712 278.933 588.878 279.778C592.55 298.398 596.616 303.515 617.387 296.733C618.298 296.436 617.435 296.929 616.943 297.661C616.749 297.948 615.471 299.079 615.066 299.205C594.304 305.634 590.255 299.578 585.737 280.121Z" fill="#A5440D"/>
<path d="M745.72 230.523C743.378 226.766 725.818 227.106 724.388 232.589C722.747 232.191 726.216 239.539 724.388 239.539C715.337 239.539 708 244.837 708 251.373C708 254.387 709.563 257.138 712.133 259.228C709.867 261.375 708.52 264.055 708.52 266.963C708.52 269.322 709.408 271.532 710.952 273.428C710.723 274.379 710.601 275.357 710.601 276.355C710.601 285.691 722.904 288.564 735.834 288.564C745.761 288.564 752.719 294.861 756.125 288.564C758.747 289.44 761.371 283.868 764.449 283.868C775.799 283.868 785 277.224 785 269.029C785 264.292 782.502 260.476 777.716 257.759C780.027 255.719 780.838 252.711 780.838 249.87C780.838 243.335 773.5 238.036 764.449 238.036C763.305 238.036 762.189 238.121 761.111 238.282C758.812 233.754 752.788 230.523 745.72 230.523Z" fill="url(#paint6_linear_191_858)"/>
<path d="M747.052 242.907C747.052 242.161 746.353 241.556 745.491 241.556C744.629 241.556 743.931 242.161 743.931 242.907V301.44C743.931 302.186 744.629 302.79 745.491 302.79C746.353 302.79 747.052 302.186 747.052 301.44V242.907Z" fill="#A5440D"/>
<path d="M769.663 255.637C769.696 255.495 769.668 255.343 769.583 255.217C769.256 254.734 767.42 254.904 767.311 255.456C764.894 267.627 760.379 270.22 746.71 265.787C746.441 265.7 746.348 265.809 746.356 265.999C746.382 266.574 746.568 267.158 746.359 267.713C746.343 267.756 746.327 267.797 746.313 267.836C745.843 269.121 748.501 267.594 750.22 268.07C762.715 271.531 766.81 267.838 769.663 255.637Z" fill="#A5440D"/>
<path d="M720.76 271.083C720.727 270.94 720.755 270.788 720.84 270.662C721.167 270.179 722.718 270.306 722.828 270.858C725.244 283.029 729.449 285.247 743.118 280.814C743.718 280.619 744.037 281.819 743.713 282.297C743.636 282.411 743.513 282.5 743.371 282.547C728.372 287.513 723.841 284.26 720.76 271.083Z" fill="#A5440D"/>
<path d="M140.107 293.355C145.498 293.355 150.106 295.783 151.96 299.211C153.219 298.852 154.6 298.63 156.056 298.579C162.377 298.356 167.72 301.425 167.989 305.435C168.091 306.942 167.459 308.368 166.297 309.572C166.454 310.151 166.537 310.748 166.537 311.36C166.537 313.425 165.598 315.331 164.013 316.868C164.876 318.111 165.362 319.514 165.362 321C165.362 326.089 159.665 330.215 152.637 330.215C149.852 330.215 147.276 329.566 145.18 328.467C141.714 329.591 137.488 330.326 132.895 330.488C125.815 330.737 119.419 329.572 115.23 327.557C113.473 329.94 109.755 331.656 105.347 331.811C100.924 331.967 96.9798 330.511 94.9178 328.248C92.9336 329.644 90.1173 330.565 86.9441 330.677C80.6229 330.9 75.2802 327.83 75.0106 323.821C74.9016 322.2 75.6389 320.673 76.9741 319.415C75.8704 318.387 75.2233 317.244 75.1414 316.026C75.0354 314.45 75.8868 312.933 77.4754 311.577C76.5887 310.321 76.0885 308.898 76.0885 307.39C76.0885 302.301 81.7859 298.175 88.8139 298.175C92.6873 298.175 96.1559 299.429 98.4899 301.406C100.546 298.319 104.909 296.19 109.958 296.19C113.427 296.19 116.572 297.196 118.867 298.827C120.469 298.193 122.333 297.799 124.34 297.728C125.956 297.671 127.508 297.83 128.928 298.164C131.086 295.299 135.283 293.355 140.107 293.355Z" fill="url(#paint7_linear_191_858)"/>
<path d="M219.107 293.355C224.498 293.355 229.106 295.783 230.96 299.211C232.219 298.852 233.6 298.63 235.056 298.579C241.377 298.356 246.72 301.425 246.989 305.435C247.091 306.942 246.459 308.368 245.297 309.572C245.454 310.151 245.537 310.748 245.537 311.36C245.537 313.425 244.598 315.331 243.013 316.868C243.876 318.111 244.362 319.514 244.362 321C244.362 326.089 238.665 330.215 231.637 330.215C228.852 330.215 226.276 329.566 224.18 328.467C220.714 329.591 216.488 330.326 211.895 330.488C204.815 330.737 198.419 329.572 194.23 327.557C192.473 329.94 188.755 331.656 184.347 331.811C179.924 331.967 175.98 330.511 173.918 328.248C171.934 329.644 169.117 330.565 165.944 330.677C159.623 330.9 154.28 327.83 154.011 323.821C153.902 322.2 154.639 320.673 155.974 319.415C154.87 318.387 154.223 317.244 154.141 316.026C154.035 314.45 154.887 312.933 156.475 311.577C155.589 310.321 155.089 308.898 155.089 307.39C155.089 302.301 160.786 298.175 167.814 298.175C171.687 298.175 175.156 299.429 177.49 301.406C179.546 298.319 183.909 296.19 188.958 296.19C192.427 296.19 195.572 297.196 197.867 298.827C199.469 298.193 201.333 297.799 203.34 297.728C204.956 297.671 206.508 297.83 207.928 298.164C210.086 295.299 214.283 293.355 219.107 293.355Z" fill="url(#paint8_linear_191_858)"/>
<path d="M551.107 293.355C556.498 293.355 561.106 295.783 562.96 299.211C564.219 298.852 565.6 298.63 567.056 298.579C573.377 298.356 578.72 301.425 578.989 305.435C579.091 306.942 578.459 308.368 577.297 309.572C577.454 310.151 577.537 310.748 577.537 311.36C577.537 313.425 576.598 315.331 575.013 316.868C575.876 318.111 576.362 319.514 576.362 321C576.362 326.089 570.665 330.215 563.637 330.215C560.852 330.215 558.276 329.566 556.18 328.467C552.714 329.591 548.488 330.326 543.895 330.488C536.815 330.737 530.419 329.572 526.23 327.557C524.473 329.94 520.755 331.656 516.347 331.811C511.924 331.967 507.98 330.511 505.918 328.248C503.934 329.644 501.117 330.565 497.944 330.677C491.623 330.9 486.28 327.83 486.011 323.821C485.902 322.2 486.639 320.673 487.974 319.415C486.87 318.387 486.223 317.244 486.141 316.026C486.035 314.45 486.887 312.933 488.475 311.577C487.589 310.321 487.089 308.898 487.089 307.39C487.089 302.301 492.786 298.175 499.814 298.175C503.687 298.175 507.156 299.429 509.49 301.406C511.546 298.319 515.909 296.19 520.958 296.19C524.427 296.19 527.572 297.196 529.867 298.827C531.469 298.193 533.333 297.799 535.34 297.728C536.956 297.671 538.508 297.83 539.928 298.164C542.086 295.299 546.283 293.355 551.107 293.355Z" fill="url(#paint9_linear_191_858)"/>
<path d="M630.107 293.355C635.498 293.355 640.106 295.783 641.96 299.211C643.219 298.852 644.6 298.63 646.056 298.579C652.377 298.356 657.72 301.425 657.989 305.435C658.091 306.942 657.459 308.368 656.297 309.572C656.454 310.151 656.537 310.748 656.537 311.36C656.537 313.425 655.598 315.331 654.013 316.868C654.876 318.111 655.362 319.514 655.362 321C655.362 326.089 649.665 330.215 642.637 330.215C639.852 330.215 637.276 329.566 635.18 328.467C631.714 329.591 627.488 330.326 622.895 330.488C615.815 330.737 609.419 329.572 605.23 327.557C603.473 329.94 599.755 331.656 595.347 331.811C590.924 331.967 586.98 330.511 584.918 328.248C582.934 329.644 580.117 330.565 576.944 330.677C570.623 330.9 565.28 327.83 565.011 323.821C564.902 322.2 565.639 320.673 566.974 319.415C565.87 318.387 565.223 317.244 565.141 316.026C565.035 314.45 565.887 312.933 567.475 311.577C566.589 310.321 566.089 308.898 566.089 307.39C566.089 302.301 571.786 298.175 578.814 298.175C582.687 298.175 586.156 299.429 588.49 301.406C590.546 298.319 594.909 296.19 599.958 296.19C603.427 296.19 606.572 297.196 608.867 298.827C610.469 298.193 612.333 297.799 614.34 297.728C615.956 297.671 617.508 297.83 618.928 298.164C621.086 295.299 625.283 293.355 630.107 293.355Z" fill="url(#paint10_linear_191_858)"/>
<defs>
<linearGradient id="paint0_linear_191_858" x1="411" y1="-117.733" x2="411" y2="574.669" gradientUnits="userSpaceOnUse">
<stop stop-color="#52DCE6"/>
<stop offset="1" stop-color="#E7F3D2"/>
</linearGradient>
<linearGradient id="paint1_linear_191_858" x1="594.649" y1="78.6826" x2="581.699" y2="372.362" gradientUnits="userSpaceOnUse">
<stop stop-color="#FE8F1F"/>
<stop offset="1" stop-color="#EF4F24"/>
</linearGradient>
<linearGradient id="paint2_linear_191_858" x1="594.649" y1="95.1714" x2="581.94" y2="386.109" gradientUnits="userSpaceOnUse">
<stop stop-color="#D9E136"/>
<stop offset="1" stop-color="#4BBE87"/>
</linearGradient>
<linearGradient id="paint3_linear_191_858" x1="594.649" y1="78.6826" x2="581.699" y2="372.362" gradientUnits="userSpaceOnUse">
<stop stop-color="#FE8F1F"/>
<stop offset="1" stop-color="#EF4F24"/>
</linearGradient>
<linearGradient id="paint4_linear_191_858" x1="594.649" y1="95.1714" x2="581.94" y2="386.109" gradientUnits="userSpaceOnUse">
<stop stop-color="#D9E136"/>
<stop offset="1" stop-color="#4BBE87"/>
</linearGradient>
<linearGradient id="paint5_linear_191_858" x1="594.649" y1="78.6826" x2="581.699" y2="372.362" gradientUnits="userSpaceOnUse">
<stop stop-color="#FE8F1F"/>
<stop offset="1" stop-color="#EF4F24"/>
</linearGradient>
<linearGradient id="paint6_linear_191_858" x1="594.649" y1="95.1714" x2="581.94" y2="386.109" gradientUnits="userSpaceOnUse">
<stop stop-color="#D9E136"/>
<stop offset="1" stop-color="#4BBE87"/>
</linearGradient>
<linearGradient id="paint7_linear_191_858" x1="611.5" y1="293.355" x2="611.5" y2="331.823" gradientUnits="userSpaceOnUse">
<stop stop-color="#7AC28D"/>
<stop offset="1" stop-color="#187136"/>
</linearGradient>
<linearGradient id="paint8_linear_191_858" x1="611.5" y1="293.355" x2="611.5" y2="331.823" gradientUnits="userSpaceOnUse">
<stop stop-color="#7AC28D"/>
<stop offset="1" stop-color="#187136"/>
</linearGradient>
<linearGradient id="paint9_linear_191_858" x1="611.5" y1="293.355" x2="611.5" y2="331.823" gradientUnits="userSpaceOnUse">
<stop stop-color="#7AC28D"/>
<stop offset="1" stop-color="#187136"/>
</linearGradient>
<linearGradient id="paint10_linear_191_858" x1="611.5" y1="293.355" x2="611.5" y2="331.823" gradientUnits="userSpaceOnUse">
<stop stop-color="#7AC28D"/>
<stop offset="1" stop-color="#187136"/>
</linearGradient>
</defs>
</svg>
