<svg width="363" height="112" viewBox="0 0 363 112" fill="none" xmlns="http://www.w3.org/2000/svg">
<path d="M37.9105 82.4807C30.8006 76.0744 18.8896 84.3994 16.5427 94.5091C36.3707 113.837 55.5626 115.437 75.1316 107.569C52.0407 96.4756 49.6282 93.0389 37.9105 82.4807Z" fill="#EF5327"/>
<path d="M110.974 69.4212C107.321 81.617 106.25 80.8862 95.4654 80.4187C79.612 79.7313 67.0888 67.503 56.8657 59.4548C41.7015 49.8321 39.5424 50.4086 33.4301 49.8321C7.92677 47.4264 -1.31181e-10 76.982 0 56.0181C0 25.0802 25.151 0 56.1764 0C100.29 2.06202 119.65 40.4622 110.974 69.4212Z" fill="#EF5126"/>
<path d="M98.9119 68.0467C88.629 85.807 81.3732 70.4431 53.0747 51.8942C25.9178 36.2594 25.7474 52.8605 30.3284 36.7729C38.2551 8.93545 68.5835 5.84231 86.1602 15.1214C108.294 26.8061 109.195 50.2864 98.9119 68.0467Z" fill="white"/>
<path fill-rule="evenodd" clip-rule="evenodd" d="M73.7531 60.1422C74.4424 62.8915 68.9281 60.1422 68.9281 60.1422L69.6174 42.2713H66.171C64.7924 42.2713 66.171 40.2093 66.171 40.2093H69.6174V36.0853C66.5326 36.0051 64.986 35.4335 62.7246 32.9923V28.5246C73.6395 31.6847 80.0505 31.8345 92.3637 27.4936V31.9613C91.3711 34.0706 90.5084 35.1351 86.5048 36.0853V40.2093H90.2958C90.2958 40.2093 91.6744 42.2713 90.2958 42.2713H87.1941V56.3618C87.1941 56.3618 82.3691 58.4238 83.403 56.3618C84.4369 54.2998 83.403 42.2713 83.403 42.2713H73.7531C73.7531 42.2713 73.0638 57.3928 73.7531 60.1422ZM73.4084 40.2093V36.6771C77.3113 37.5453 79.5004 37.5037 83.403 36.6771V40.2093H73.4084Z" fill="#EE4D22"/>
<path d="M3.10176 72.8579C1.4742 71.3467 26.8872 47.2807 44.1917 58.8807C61.4962 70.4808 87.3672 93.6927 102.091 87.749C100.854 89.5676 100.104 90.5387 98.5672 92.1034C83.8431 98.0471 61.4962 75.9795 44.1917 64.3795C27.335 53.0796 4.09211 74.3193 4.40497 76.8231C4.42996 76.8775 4.45508 76.9305 4.48033 76.982C4.43821 76.9429 4.41328 76.8896 4.40497 76.8231C3.88884 75.6997 3.42935 73.9876 3.10176 72.8579Z" fill="#EF5327"/>
<path d="M9.01874 83.4328C7.70511 81.9318 28.9658 58.1997 42.9326 69.7211C56.8995 81.2424 80.0147 101.991 92.0772 98.5543C90.7545 99.7861 88.8456 100.773 87.2522 101.647C77.1259 107.207 56.8995 86.7038 42.9327 75.1825C29.282 63.9219 11.6268 85.716 12.061 88.1097C12.0835 88.1566 12.1035 88.2014 12.1205 88.2442C12.0908 88.2102 12.071 88.1652 12.061 88.1097C11.4984 86.9435 9.28525 84.5637 9.01874 83.4328Z" fill="#EF5327"/>
<path d="M194.372 73.8807C194.15 72.7771 193.249 71.9205 191.668 71.3106C190.088 70.7008 188.15 70.3958 185.853 70.3958C184.174 70.3958 182.705 70.5556 181.445 70.875C180.198 71.1944 179.223 71.6337 178.519 72.1927C177.828 72.7517 177.482 73.387 177.482 74.0985C177.482 74.6938 177.723 75.2057 178.204 75.634C178.698 76.0551 179.328 76.4072 180.093 76.6903C180.859 76.9662 181.661 77.1949 182.501 77.3764C183.341 77.5507 184.112 77.6922 184.816 77.8011L188.668 78.411C189.656 78.5634 190.755 78.774 191.965 79.0426C193.187 79.3112 194.354 79.6779 195.465 80.1425C196.589 80.5999 197.515 81.188 198.243 81.9067C198.972 82.6255 199.336 83.5076 199.336 84.553C199.336 85.7582 198.799 86.8472 197.725 87.8201C196.663 88.7929 195.107 89.5661 193.058 90.1397C191.02 90.7132 188.545 91 185.631 91C182.915 91 180.563 90.7423 178.575 90.2268C176.599 89.7113 175.043 88.9926 173.908 88.0706C172.784 87.1485 172.148 86.0777 172 84.858H176.741C176.865 85.7001 177.346 86.3971 178.186 86.9489C179.038 87.4934 180.112 87.8999 181.408 88.1686C182.717 88.4299 184.125 88.5606 185.631 88.5606C187.384 88.5606 188.958 88.3936 190.354 88.0597C191.749 87.7184 192.854 87.2465 193.669 86.6439C194.484 86.0341 194.891 85.3226 194.891 84.5095C194.891 83.7689 194.539 83.1664 193.835 82.7017C193.132 82.2371 192.206 81.8595 191.057 81.5691C189.909 81.2787 188.668 81.0246 187.335 80.8068L182.668 80.0227C179.704 79.5218 177.359 78.8067 175.63 77.8774C173.901 76.9481 173.037 75.732 173.037 74.2292C173.037 72.9804 173.611 71.8914 174.76 70.9621C175.92 70.0256 177.476 69.2996 179.427 68.7841C181.39 68.2614 183.581 68 186.001 68C188.446 68 190.619 68.2577 192.52 68.7732C194.422 69.2814 195.928 69.9784 197.039 70.8641C198.163 71.7498 198.756 72.7554 198.817 73.8807H194.372Z" fill="black"/>
<path d="M231.779 68.3049H236.372V83.072C236.372 84.5966 235.761 85.9579 234.538 87.1558C233.328 88.3464 231.618 89.2866 229.408 89.9763C227.198 90.6588 224.605 91 221.63 91C218.654 91 216.061 90.6588 213.851 89.9763C211.641 89.2866 209.925 88.3464 208.702 87.1558C207.492 85.9579 206.887 84.5966 206.887 83.072V68.3049H211.481V82.8542C211.481 83.9432 211.888 84.9124 212.703 85.7618C213.518 86.604 214.678 87.2683 216.185 87.7547C217.703 88.2339 219.518 88.4735 221.63 88.4735C223.741 88.4735 225.556 88.2339 227.075 87.7547C228.593 87.2683 229.754 86.604 230.556 85.7618C231.371 84.9124 231.779 83.9432 231.779 82.8542V68.3049Z" fill="black"/>
<path d="M266.287 73.8807C266.064 72.7771 265.163 71.9205 263.583 71.3106C262.002 70.7008 260.064 70.3958 257.767 70.3958C256.088 70.3958 254.619 70.5556 253.359 70.875C252.112 71.1944 251.137 71.6337 250.433 72.1927C249.742 72.7517 249.396 73.387 249.396 74.0985C249.396 74.6938 249.637 75.2057 250.118 75.634C250.612 76.0551 251.242 76.4072 252.007 76.6903C252.773 76.9662 253.575 77.1949 254.415 77.3764C255.255 77.5507 256.026 77.6922 256.73 77.8011L260.582 78.411C261.57 78.5634 262.669 78.774 263.879 79.0426C265.101 79.3112 266.268 79.6779 267.379 80.1425C268.503 80.5999 269.429 81.188 270.157 81.9067C270.886 82.6255 271.25 83.5076 271.25 84.553C271.25 85.7582 270.713 86.8472 269.639 87.8201C268.577 88.7929 267.021 89.5661 264.972 90.1397C262.934 90.7132 260.459 91 257.545 91C254.829 91 252.477 90.7423 250.489 90.2268C248.513 89.7113 246.958 88.9926 245.822 88.0706C244.698 87.1485 244.062 86.0777 243.914 84.858H248.655C248.779 85.7001 249.26 86.3971 250.1 86.9489C250.952 87.4934 252.026 87.8999 253.322 88.1686C254.631 88.4299 256.039 88.5606 257.545 88.5606C259.298 88.5606 260.872 88.3936 262.268 88.0597C263.663 87.7184 264.768 87.2465 265.583 86.6439C266.398 86.0341 266.805 85.3226 266.805 84.5095C266.805 83.7689 266.453 83.1664 265.749 82.7017C265.046 82.2371 264.12 81.8595 262.971 81.5691C261.823 81.2787 260.582 81.0246 259.249 80.8068L254.582 80.0227C251.618 79.5218 249.273 78.8067 247.544 77.8774C245.815 76.9481 244.951 75.732 244.951 74.2292C244.951 72.9804 245.525 71.8914 246.674 70.9621C247.834 70.0256 249.39 69.2996 251.341 68.7841C253.304 68.2614 255.495 68 257.915 68C260.36 68 262.533 68.2577 264.434 68.7732C266.336 69.2814 267.842 69.9784 268.953 70.8641C270.077 71.7498 270.67 72.7554 270.731 73.8807H266.287Z" fill="black"/>
<path d="M278.802 90.608V68.3049H283.395V78.2367H303.619V68.3049H308.212V90.608H303.619V80.6326H283.395V90.608H278.802Z" fill="black"/>
<path d="M322 68.3049V90.608H317.407V68.3049H322Z" fill="black"/>
<path d="M170.489 23.6939C171.128 23.6939 171.904 24.0271 172.816 24.6936C173.774 25.325 174.253 25.8687 174.253 26.3247C174.253 28.4644 174.162 31.3934 173.98 35.1117C173.934 36.0237 173.888 37.1287 173.843 38.4266C173.797 39.6894 173.774 41.1626 173.774 42.8464C173.774 48.1782 174.185 52.1069 175.006 54.6325C174.961 55.4744 174.527 56.0883 173.706 56.4741C172.885 56.8249 172.063 57.0003 171.242 57.0003C169.417 57.0003 168.208 56.5092 167.615 55.527C167.067 54.5448 166.794 53.1417 166.794 51.3177C166.794 44.5476 166.885 38.3213 167.067 32.6387C161.82 37.1287 157.737 40.8995 154.817 43.9513C154.817 43.9513 154.406 44.1618 153.585 44.5827C152.809 45.1089 152.17 45.372 151.669 45.372C150.482 45.372 149.501 45.144 148.726 44.688C147.95 44.2319 147.197 43.5655 146.467 42.6885L143.182 39.1106C140.901 36.6551 139.235 34.796 138.186 33.5332C138.186 36.7604 138.391 41.1451 138.802 46.6874C139.121 49.8795 139.281 52.2823 139.281 53.8959C139.281 54.7378 139.007 55.4569 138.46 56.0532C137.912 56.6144 137.045 56.895 135.859 56.895C134.673 56.895 133.692 56.7197 132.916 56.3689C132.186 56.0181 131.798 55.4919 131.753 54.7904C131.798 54.1941 131.821 53.2119 131.821 51.8438C131.821 49.1078 131.707 45.7754 131.479 41.8466L131.342 39.0053L131.205 35.3222C131.16 34.2348 131.114 32.9719 131.068 31.5338C131.023 30.0605 131 28.4644 131 26.7456C131 24.641 132.483 23.5886 135.449 23.5886C136.361 23.5886 137.274 23.764 138.186 24.1148C139.144 24.4656 139.851 24.9742 140.308 25.6407C140.673 26.8684 142.019 28.9029 144.346 31.7442C146.673 34.5855 148.954 37.2514 151.189 39.742C153.197 37.7776 154.84 36.3043 156.117 35.3222C158.307 33.6034 160.109 32.0073 161.524 30.534C162.984 29.0608 164.558 27.2893 166.246 25.2197C166.657 24.7988 167.25 24.448 168.025 24.1674C168.801 23.8517 169.622 23.6939 170.489 23.6939Z" fill="black"/>
<path d="M195.821 27.9032C195.684 30.1482 195.615 32.3055 195.615 34.3751C195.615 36.5148 195.798 39.6543 196.163 43.7935C196.209 44.4249 196.3 45.7052 196.437 47.6345C196.574 49.5287 196.642 51.2651 196.642 52.8436C197.098 52.8085 197.577 52.7559 198.079 52.6857C198.627 52.6155 199.037 52.5805 199.311 52.5805C200.315 52.5805 201.113 52.7734 201.707 53.1593C202.3 53.5451 202.596 54.1414 202.596 54.9482C202.596 55.4744 202.322 55.8778 201.775 56.1584C201.227 56.439 200.269 56.6495 198.901 56.7898C197.577 56.895 195.638 56.9477 193.083 56.9477C190.254 56.9477 188.133 56.8775 186.718 56.7372C185.304 56.5969 184.323 56.3338 183.776 55.9479C183.228 55.527 182.954 54.9131 182.954 54.1064C182.954 53.51 183.205 53.1066 183.707 52.8962C184.209 52.6857 184.916 52.5805 185.829 52.5805L187.266 52.6331L189.524 52.7383L189.182 46.5295C188.908 43.1621 188.772 40.0752 188.772 37.269C188.772 35.7606 188.84 33.691 188.977 31.0602L189.114 28.1663C187.562 28.2364 186.353 28.2715 185.486 28.2715C184.483 28.2715 183.798 28.1312 183.433 27.8506C183.114 27.57 182.954 26.9912 182.954 26.1142C182.954 25.132 183.821 24.5006 185.555 24.22C187.334 23.9394 190.026 23.7991 193.631 23.7991C196.414 23.7991 198.49 23.8692 199.859 24.0096C201.273 24.1499 201.98 24.4656 201.98 24.9567C201.98 26.1493 201.638 26.9386 200.954 27.3244C200.315 27.6752 199.06 27.8506 197.19 27.8506L195.821 27.9032Z" fill="black"/>
<path d="M210.949 54.4747C210.949 53.3171 211.04 52.0368 211.223 50.6336C211.405 49.0201 211.496 46.9856 211.496 44.5301C211.496 40.0401 211.246 35.708 210.744 31.5338C210.47 28.938 210.333 27.0964 210.333 26.009C210.333 25.2724 210.812 24.6585 211.77 24.1674C212.728 23.6412 213.709 23.3782 214.713 23.3782C215.352 23.3782 216.128 23.4132 217.04 23.4834C217.953 23.5535 218.614 23.5886 219.025 23.5886C229.291 23.5886 236.842 25.7108 241.678 29.9553C244.735 32.6913 246.263 36.3219 246.263 40.8469C246.263 42.7411 245.807 44.6529 244.895 46.5822C244.028 48.4764 242.773 50.0198 241.131 51.2124C239.351 52.5454 237.663 53.6153 236.066 54.4221C234.515 55.1938 232.393 55.8427 229.701 56.3689C227.055 56.895 223.656 57.1581 219.504 57.1581C216.858 57.1581 214.759 56.9301 213.207 56.4741C211.702 56.0181 210.949 55.3516 210.949 54.4747ZM222.105 52.37C225.161 52.37 227.967 51.9491 230.523 51.1072C233.078 50.2303 235.131 48.9324 236.682 47.2136C238.233 45.4597 239.009 43.3199 239.009 40.7943C239.009 38.3038 238.553 36.2342 237.64 34.5855C236.728 32.9018 235.154 31.5338 232.918 30.4814C231.23 29.6746 229.154 29.0958 226.69 28.7451C224.226 28.3592 221.26 28.1663 217.793 28.1663C217.793 28.5171 217.839 29.3239 217.93 30.5867C218.021 31.7793 218.067 32.779 218.067 33.5858L218.135 34.7434C218.409 38.3915 218.546 41.2854 218.546 43.4251C218.546 46.7926 218.295 49.7041 217.793 52.1595C218.888 52.2998 220.325 52.37 222.105 52.37Z" fill="black"/>
<path d="M274.447 57.0003C271.436 57.0003 268.676 56.7197 266.166 56.1584C263.657 55.5621 261.604 54.7027 260.007 53.5802C257.087 51.5808 255.034 49.4059 253.847 47.0557C252.707 44.6704 252.136 41.6362 252.136 37.953C252.136 37.1813 252.273 36.4622 252.547 35.7957C252.866 35.0942 253.277 34.3224 253.779 33.4806C253.916 33.235 254.121 32.8492 254.395 32.323C254.714 31.7618 254.92 31.2531 255.011 30.7971C255.878 29.5694 257.338 28.3943 259.391 27.2718C261.49 26.1493 263.748 25.2548 266.166 24.5883C268.585 23.8868 270.706 23.536 272.531 23.536C281.337 23.536 287.633 25.8511 291.42 30.4814C293.565 33.1824 294.637 35.9009 294.637 38.637C294.637 42.1799 293.793 45.2843 292.105 47.9502C290.462 50.6161 288.181 52.6857 285.261 54.159C283.436 55.0008 281.565 55.6849 279.649 56.211C277.733 56.7372 275.999 57.0003 274.447 57.0003ZM259.254 41.8466C259.208 43.7759 259.733 45.372 260.828 46.6348C261.969 47.8625 263.748 49.213 266.166 50.6863C267.991 51.2124 269.269 51.5632 269.999 51.7386C270.729 51.914 271.527 52.0017 272.394 52.0017C275.36 52.0017 277.984 51.5281 280.265 50.581C282.546 49.6339 284.303 48.336 285.535 46.6874C286.812 45.0387 287.451 43.1971 287.451 41.1626C287.451 38.4967 287.063 36.392 286.287 34.8486C285.512 33.3052 284.12 31.9196 282.113 30.6919C281.063 30.0254 279.717 29.5343 278.075 29.2186C276.478 28.9029 274.767 28.7451 272.942 28.7451C268.562 28.7451 265.163 29.9377 262.744 32.323C260.372 34.6732 259.208 37.8478 259.254 41.8466Z" fill="black"/>
<path d="M326.029 43.0042C329.998 48.1957 333.716 52.3174 337.184 55.3692C337.549 55.6498 337.732 55.9655 337.732 56.3163C337.732 56.7723 337.367 57.1581 336.637 57.4738C335.907 57.8246 335.062 58 334.104 58C332.69 58 331.161 57.544 329.519 56.632C328.333 56.0006 327.238 55.071 326.234 53.8433C325.23 52.5805 324.089 50.9669 322.812 49.0025L321.648 47.2136C320.462 45.5649 319.755 44.6003 319.527 44.3196C318.523 44.6353 317.36 44.8633 316.036 45.0037C314.713 45.144 313.094 45.2667 311.177 45.372C311.269 49.8619 311.314 53.0014 311.314 54.7904C311.314 55.4569 310.995 56.0006 310.356 56.4215C309.717 56.8074 308.919 57.0003 307.961 57.0003C306.774 57.0003 305.862 56.632 305.223 55.8953C304.584 54.9131 304.265 53.3873 304.265 51.3177L304.333 47.4766C304.333 45.0913 304.402 42.8288 304.539 40.6891C304.63 37.8828 304.676 35.8133 304.676 34.4803L304.744 31.7968C304.744 30.99 304.676 30.1657 304.539 29.3239C303.809 29.1485 303.17 28.8854 302.622 28.5346C302.075 28.1487 301.801 27.7278 301.801 27.2718C301.801 26.3949 302.212 25.7284 303.033 25.2724C303.9 24.7813 304.972 24.4656 306.25 24.3253C309.945 23.8692 313.55 23.6412 317.063 23.6412C323.04 23.6412 327.99 24.5006 331.914 26.2195C335.838 27.9383 337.8 30.5516 337.8 34.0594C337.8 35.1468 337.481 36.1991 336.842 37.2164C336.249 38.1985 335.427 39.0229 334.378 39.6894C331.641 41.338 328.857 42.443 326.029 43.0042ZM330.546 33.9015C330.546 32.2178 329.382 30.8497 327.055 29.7974C324.774 28.71 321.489 28.1663 317.2 28.1663C315.329 28.1663 313.413 28.3417 311.451 28.6925C311.542 29.9553 311.588 30.8497 311.588 31.3759C311.588 32.4282 311.497 33.9366 311.314 35.901C311.223 37.8653 311.177 39.4438 311.177 40.6365C314.234 40.6365 317.154 40.3208 319.937 39.6894C321.945 39.2333 323.633 38.7949 325.002 38.3739C326.371 37.953 327.625 37.3742 328.766 36.6376C329.952 35.8659 330.546 34.9538 330.546 33.9015Z" fill="black"/>
<path d="M356.225 27.9032C356.042 30.9199 355.951 33.0772 355.951 34.3751C355.951 37.2164 356.065 40.3558 356.293 43.7935C356.475 47.8625 356.567 50.8792 356.567 52.8436C358.301 52.6682 359.35 52.5805 359.715 52.5805C360.719 52.5805 361.517 52.7734 362.11 53.1593C362.703 53.5451 363 54.1414 363 54.9482C363 55.4744 362.726 55.8778 362.179 56.1584C361.631 56.439 360.673 56.6495 359.304 56.7898C357.981 56.895 356.042 56.9477 353.487 56.9477C350.658 56.9477 348.537 56.8775 347.122 56.7372C345.708 56.5969 344.727 56.3338 344.179 55.9479C343.632 55.527 343.358 54.9131 343.358 54.1064C343.358 53.51 343.609 53.1066 344.111 52.8962C344.613 52.6857 345.32 52.5805 346.232 52.5805L347.67 52.6331L349.928 52.7383L349.586 46.5295C349.312 43.1621 349.175 40.0752 349.175 37.269C349.175 35.7606 349.244 33.691 349.381 31.0602L349.518 28.1663C347.966 28.2364 346.757 28.2715 345.89 28.2715C344.886 28.2715 344.202 28.1312 343.837 27.8506C343.518 27.57 343.358 26.9912 343.358 26.1142C343.358 25.132 344.225 24.5006 345.959 24.22C347.738 23.9394 350.43 23.7991 354.034 23.7991C356.818 23.7991 358.894 23.8692 360.262 24.0096C361.677 24.1499 362.384 24.4656 362.384 24.9567C362.384 26.1493 362.042 26.9386 361.357 27.3244C360.719 27.6752 359.464 27.8506 357.593 27.8506L356.225 27.9032Z" fill="black"/>
<path fill-rule="evenodd" clip-rule="evenodd" d="M277.905 53.3901C268.647 55.9285 258.682 51.7066 255.648 43.9604C252.614 36.2142 257.66 27.877 266.919 25.3387C276.177 22.8004 286.142 27.0222 289.176 34.7684C292.21 42.5146 287.164 50.8518 277.905 53.3901ZM261.372 42.3911C262.702 45.7858 266.053 48.1527 269.943 48.8637C270.209 48.9122 270.477 48.953 270.747 48.9859C271.785 49.1123 272.852 49.1219 273.923 49.0033C274.209 48.9717 274.495 48.9309 274.781 48.8808C275.198 48.8076 275.615 48.7145 276.03 48.6009C277.32 48.2471 278.486 47.7224 279.504 47.0664C280.716 46.285 281.718 45.3174 282.468 44.2312C283.041 43.4017 283.468 42.503 283.73 41.5652C284.009 40.5643 284.1 39.5189 283.982 38.4653C283.951 38.1837 283.904 37.9014 283.842 37.6193C283.748 37.191 283.618 36.7631 283.452 36.3378C281.877 32.3161 277.465 29.7371 272.68 29.6447C272.53 29.6417 272.378 29.6413 272.227 29.6434C271.644 29.6513 271.057 29.6963 270.469 29.7802C270.327 29.8005 270.185 29.8231 270.043 29.8481C269.626 29.9212 269.209 30.0143 268.795 30.128C268.38 30.2417 267.978 30.373 267.59 30.5207C267.458 30.5709 267.327 30.623 267.198 30.677C267.188 30.6814 267.177 30.6859 267.167 30.6904C265.927 31.2135 264.837 31.907 263.925 32.7244C263.812 32.8258 263.702 32.9292 263.594 33.0344C261.985 34.6067 261 36.5852 260.821 38.6717C260.793 38.9967 260.785 39.3243 260.797 39.6534C260.83 40.5625 261.017 41.4829 261.372 42.3911Z" fill="white"/>
<path fill-rule="evenodd" clip-rule="evenodd" d="M279.245 56.8111C267.728 59.9685 255.333 54.7169 251.559 45.0814C247.785 35.4459 254.062 25.0752 265.579 21.9178C277.096 18.7604 289.491 24.0119 293.265 33.6474C297.039 43.2829 290.762 53.6536 279.245 56.8111ZM255.648 43.9604C258.682 51.7066 268.647 55.9285 277.905 53.3901C287.164 50.8518 292.21 42.5146 289.176 34.7684C286.142 27.0222 276.177 22.8004 266.919 25.3387C257.66 27.877 252.614 36.2142 255.648 43.9604Z" fill="#1E1E1E"/>
</svg>
